<?xml version="1.0" encoding="UTF-8" standalone="no"?>
<svg
   version="1.1"
   width="595.27557pt"
   height="841.88977pt"
   id="svg15"
   viewBox="0 0 595.27557 841.88977"
   sodipodi:docname="sagemcom-seeklogo.com.cdr"
   xmlns:inkscape="http://www.inkscape.org/namespaces/inkscape"
   xmlns:sodipodi="http://sodipodi.sourceforge.net/DTD/sodipodi-0.dtd"
   xmlns="http://www.w3.org/2000/svg"
   xmlns:svg="http://www.w3.org/2000/svg">
  <sodipodi:namedview
     id="namedview17"
     pagecolor="#ffffff"
     bordercolor="#000000"
     borderopacity="0.25"
     inkscape:showpageshadow="2"
     inkscape:pageopacity="0.0"
     inkscape:pagecheckerboard="0"
     inkscape:deskcolor="#d1d1d1"
     inkscape:document-units="pt" />
  <defs
     id="defs11">
    <linearGradient
       id="grad1">
      <stop
         offset="0.0000%"
         stop-color="#0185fc"
         stop-opacity="1.0000"
         id="stop2" />
      <stop
         offset="43.0000%"
         stop-color="#01d4d5"
         stop-opacity="1.0000"
         id="stop4" />
      <stop
         offset="56.0000%"
         stop-color="#01d4d5"
         stop-opacity="1.0000"
         id="stop6" />
      <stop
         offset="100.0000%"
         stop-color="#0185fc"
         stop-opacity="1.0000"
         id="stop8" />
    </linearGradient>
  </defs>
  <path
     d="m 146.4253,581.233 h 2.634 c 3.1192,0.161 6.2929,0.6401 9.1136,2.0546 3.1136,1.5182 5.518,4.2097 7.1079,7.2513 0.4391,0.904 1.1305,1.868 0.8637,2.9239 -0.422,1.0248 -1.6013,1.3371 -2.5134,1.7793 -1.3289,0.5106 -2.5742,1.2626 -3.966,1.5925 -0.9298,0.1781 -1.4837,-0.7316 -1.8595,-1.4235 -0.904,-1.7617 -2.1405,-3.4206 -3.8736,-4.4362 -2.4018,-1.4375 -5.3146,-1.5611 -8.0376,-1.3944 -2.2096,0.1576 -4.557,0.5363 -6.3448,1.9514 -1.7101,1.3515 -2.2008,3.7905 -1.6931,5.828 0.4107,1.5922 1.7733,2.723 3.24,3.3256 2.7261,1.1452 5.7072,1.3947 8.6085,1.7561 3.3143,0.3872 6.6631,0.9181 9.7535,2.224 2.4851,1.0443 4.7661,2.7661 6.0834,5.1591 1.6155,2.9358 1.8768,6.4451 1.4119,9.7106 -0.5539,3.7474 -2.7606,7.1827 -5.917,9.2685 -4.244,2.8638 -9.5295,3.6589 -14.5542,3.5294 -4.0204,-0.1001 -8.1955,-0.7889 -11.613,-3.0328 -3.1422,-2.0347 -5.3028,-5.3115 -6.5024,-8.8067 -0.3013,-0.7917 -0.2554,-1.8737 0.5998,-2.2923 1.3028,-0.6634 2.7289,-1.0336 4.0833,-1.5787 0.8867,-0.2899 2.0146,-0.8523 2.8324,-0.1176 0.8524,0.9527 1.0987,2.2842 1.8853,3.2913 1.9568,2.95 5.5466,4.379 8.9927,4.4479 3.0129,0.0402 6.2268,-0.1234 8.8815,-1.7102 2.6169,-1.5381 3.5436,-5.2342 2.2124,-7.897 -1.1537,-2.0055 -3.5297,-2.7689 -5.6475,-3.2687 -4.399,-0.9178 -8.9614,-0.8778 -13.3004,-2.1231 -2.9928,-0.8238 -5.9712,-2.293 -7.8449,-4.8552 -2.0919,-2.8264 -2.554,-6.5282 -2.2096,-9.9431 0.3529,-3.5008 2.0948,-6.8522 4.8552,-9.0561 3.5552,-2.8979 8.2267,-3.9569 12.7179,-4.1579 z m 84.4994,-149.5544 c 9.3977,8.6034 20.1271,15.6387 31.8152,20.6886 -0.1633,21.1564 0.3277,42.3122 -0.1633,63.4439 0.1633,7.4342 -7.4341,14.0261 -14.7974,12.2729 -6.1713,-1.3082 -11.9687,-3.9266 -17.8132,-6.2178 -31.7217,-14.0964 -59.4468,-37.4261 -77.47,-67.1851 -23.3762,-37.9632 -30.2037,-85.1377 -20.7119,-128.501 11.0333,-52.247 48.7868,-97.6212 97.9724,-118.3331 38.594,-16.177 82.9868,-17.9768 122.7269,-4.8161 28.2152,9.2342 53.7896,26.229 73.286,48.6241 26.252,30.1091 40.9091,69.8726 40.7685,109.8006 0.4912,41.5868 -14.0253,83.2907 -41.0959,114.9894 -20.8281,24.3584 -48.8571,42.709 -79.8309,51.1719 -7.551,2.6413 -16.2474,-3.7168 -16.2236,-11.6646 -0.5612,-20.8763 -0.0238,-41.7742 -0.1871,-62.674 20.6649,-8.1114 38.7352,-23.0256 49.4646,-42.6147 13.0913,-23.0734 15.7096,-51.7802 6.6626,-76.7698 -10.3091,-29.9449 -36.7949,-53.6026 -67.769,-60.3352 -30.7163,-7.3168 -64.0058,2.9923 -86.5166,24.8029 -16.855,17.4387 -27.468,41.0264 -27.468,65.4315 -0.6548,25.2 9.8879,49.9094 27.3507,67.8856 z m -47.9736,162.8948 c 1.9687,-0.4762 4,-0.3129 6.0035,-0.3384 1.5665,0.009 3.1332,-0.0176 4.6973,0.0116 2.829,0.0542 5.6041,1.3686 7.426,3.5351 1.5868,1.8363 2.4278,4.2667 2.4137,6.6886 0.006,8.3157 0.0141,16.632 -0.003,24.9477 0.0403,1.0472 -0.8294,2.0461 -1.8941,2.0691 -1.9253,0.0311 -3.8534,0.0255 -5.779,0.002 -0.4702,0.0746 -0.6687,-0.4303 -0.8322,-0.7631 -3.2227,0.548 -6.4965,0.8581 -9.7651,0.7348 -5.004,-0.2413 -9.7189,-3.3228 -12.0118,-7.7681 -1.4374,-2.6201 -1.7989,-5.6616 -1.6699,-8.6085 0.1434,-3.71 -0.4737,-7.564 0.8323,-11.134 1.6129,-4.6655 5.7534,-8.3443 10.5825,-9.3773 z m 3.8452,7.5266 c -3.5495,0.5278 -6.4907,3.6646 -6.7663,7.2456 -0.0975,2.0977 -0.0257,4.2038 -0.0399,6.3046 -0.0233,3.1133 1.9394,6.1149 4.7888,7.3661 2.4769,1.1418 5.2716,0.591 7.8999,0.72 1.1735,0.1321 2.3502,-0.8294 2.3389,-2.0316 0.0201,-5.2656 0.0286,-10.531 -0.0117,-15.7966 -0.0198,-2.1062 -1.9284,-3.943 -4.0286,-3.917 -1.3949,0.003 -2.798,-0.0833 -4.1811,0.1089 z m 64.7048,-4.2355 c 3.4495,-2.9954 8.2355,-3.7559 12.6632,-3.6128 4.2327,0.1239 8.7004,1.3833 11.6592,4.5771 1.7391,1.8567 2.8148,4.2701 3.2338,6.7666 0.3846,2.0945 0.2097,4.2324 0.2525,6.3473 -0.0113,1.05 0.0978,2.2326 -0.5998,3.1102 -0.6571,0.8467 -1.8108,1.0074 -2.812,0.993 -6.8153,-0.003 -13.6303,-0.003 -20.4457,0 0.0119,2.069 -0.2149,4.3333 0.9958,6.1466 1.26,1.9942 3.7276,2.7579 5.9746,2.835 2.7349,0.1179 5.7733,-0.3932 7.7445,-2.4591 0.8326,-0.8521 1.3465,-2.2008 2.6204,-2.4823 1.199,-0.1488 2.2093,0.6715 3.2306,1.171 0.9644,0.5939 2.3417,0.9641 2.6606,2.2039 0.241,1.2969 -0.6831,2.3902 -1.3861,3.3716 -2.6172,3.4205 -6.95,4.9813 -11.1141,5.3662 -4.7602,0.4213 -9.9944,0.0859 -13.9771,-2.8442 -3.429,-2.4934 -4.9957,-6.8063 -5.1363,-10.9242 -0.0462,-3.2998 -0.0289,-6.6027 -0.0114,-9.9026 0.0802,-3.9257 1.3859,-8.0461 4.4473,-10.6633 z m 5.4839,5.7625 c -1.4493,1.5781 -1.6242,3.8305 -1.5327,5.8709 5.154,0 10.3076,0 15.461,0 0.0349,-1.8051 -0.0142,-3.7446 -1.0556,-5.2971 -1.2169,-1.8998 -3.5583,-2.6516 -5.7076,-2.7635 -2.5137,-0.1523 -5.3776,0.2296 -7.1651,2.1897 z m 33.1574,-7.2859 c 2.5223,-1.7764 5.6815,-2.2867 8.7089,-2.1061 3.4121,-0.2268 6.9384,0.7398 9.5324,3.0214 2.5568,-2.2524 6.0346,-3.2368 9.4036,-3.0214 2.8267,-0.1437 5.7705,0.1947 8.2185,1.7186 3.6782,2.1405 6.0916,6.2728 6.0948,10.537 0.0113,7.6586 0.006,15.3173 0,22.9759 0.0572,1.0075 -0.6432,2.0061 -1.6387,2.2269 -1.1594,0.1378 -2.3298,0.0233 -3.4923,0.0632 -0.7461,-0.0314 -1.5611,0.1205 -2.2383,-0.2727 -0.7316,-0.39 -1.1418,-1.2166 -1.1075,-2.0284 -0.0116,-7.3718 0.006,-14.7467 -0.009,-22.1185 0.009,-2.0716 -1.5407,-4.0031 -3.5493,-4.4853 -1.0216,-0.2208 -2.0806,-0.1635 -3.1164,-0.1261 -2.2269,0.112 -4.2472,2.052 -4.3044,4.3016 0,7.4781 0.003,14.9587 0,22.4393 0.0975,1.1364 -0.8493,2.247 -1.9999,2.2757 -1.455,0.0286 -2.9097,0.0116 -4.3645,0.009 -1.2197,0.0541 -2.2643,-1.0874 -2.1696,-2.2901 -0.006,-7.4693 -0.003,-14.9386 0,-22.4051 -0.017,-2.3043 -2.1319,-4.2729 -4.3988,-4.3359 -1.3717,-0.0343 -2.8494,-0.1519 -4.089,0.5539 -1.5698,0.8207 -2.5628,2.5742 -2.4908,4.3419 0,7.2711 0.003,14.5454 0,21.8165 0.1032,1.1512 -0.8436,2.287 -2.0117,2.31 -1.4522,0.0261 -2.901,0.0173 -4.3501,0.006 -1.2109,0.0227 -2.2238,-1.1395 -2.1036,-2.3301 0,-7.6416 0,-15.2861 0,-22.9274 -0.002,-4.0173 2.1379,-7.9316 5.4754,-10.1495 z m 133.1516,1.4406 c 2.2838,-2.2612 5.4776,-3.5728 8.6947,-3.5467 2.0026,0.0343 4.0402,-0.1525 6.0086,0.3268 1.9542,0.4448 3.7675,1.4035 5.3027,2.6861 2.3386,-2.0086 5.4204,-3.0991 8.5023,-3.016 2.8182,-0.063 5.7821,-0.0831 8.3364,1.2943 3.9138,1.908 6.62,5.9972 6.8695,10.3447 v 23.9746 c -0.1293,0.9845 -0.9556,1.8593 -1.9744,1.891 -1.4519,0.04 -2.9041,0.023 -4.3531,0.009 -1.2195,0.0428 -2.2383,-1.1103 -2.1351,-2.3074 -0.006,-6.7862 -0.002,-13.5754 -0.002,-20.365 -0.0114,-1.182 0.1119,-2.4247 -0.3958,-3.5322 -0.6831,-1.59 -2.296,-2.7374 -4.0291,-2.8151 -1.7677,-0.1233 -3.782,-0.0947 -5.1191,1.2487 -0.8351,0.7917 -1.4261,1.9023 -1.4318,3.0671 -0.003,7.4695 0.006,14.9388 -0.003,22.4084 0.0947,1.1616 -0.8722,2.2955 -2.0546,2.2924 -1.4493,0.0286 -2.8984,0.0173 -4.3446,0.003 -1.2252,0.0459 -2.2436,-1.1191 -2.1348,-2.3187 -0.002,-7.4606 0,-14.9213 0,-22.3821 -0.0201,-1.6501 -1.1364,-3.174 -2.6025,-3.8685 -1.1965,-0.5967 -2.5741,-0.4904 -3.8653,-0.4561 -1.8479,0.0491 -3.5697,1.3142 -4.2038,3.0447 -0.4164,1.0503 -0.29,2.2008 -0.3044,3.3027 -0.003,6.7952 0.006,13.5901 -0.003,20.3825 0.0887,1.1531 -0.8609,2.2867 -2.0375,2.2898 -1.455,0.0312 -2.9123,0.0255 -4.3645,0.003 -1.1911,0.009 -2.1606,-1.1276 -2.0716,-2.2924 -0.0144,-7.5614 -0.006,-15.1257 -0.003,-22.6896 -0.0431,-3.3342 1.3229,-6.6544 3.7191,-8.9785 z m -211.5154,0.8147 c 3.142,-3.4033 8.032,-4.3186 12.4736,-4.3186 2.5943,0.009 5.1996,0.0859 7.7769,0.4249 2.7255,0.3098 5.1845,1.9055 6.895,4.0085 1.828,2.247 2.7088,5.1681 2.6858,8.0433 -0.008,8.9989 0.006,17.9977 -0.006,26.9938 -0.0629,3.8194 -1.059,7.8681 -3.8194,10.6571 -2.7371,2.8035 -6.76,3.8307 -10.5653,3.9744 h -2.1265 c -2.7261,-0.1321 -5.4834,-0.5825 -7.9543,-1.7847 -2.5393,-1.2109 -4.6775,-3.2799 -5.8967,-5.8198 -0.5224,-1.0817 0.1721,-2.2895 1.1821,-2.7632 1.4377,-0.7115 2.7519,-1.7903 4.3617,-2.0718 1.5327,-0.1001 2.2152,1.4921 3.0733,2.4622 1.8195,2.1693 4.8898,2.5798 7.5467,2.2869 1.9343,-0.1862 3.8797,-1.1709 4.818,-2.9327 1.2569,-2.2524 0.8955,-4.9181 0.9527,-7.389 -3.0274,0.6743 -6.1236,1.0099 -9.2199,1.1449 -3.4864,0.1119 -7.1595,-0.3325 -10.1608,-2.2408 -2.7434,-1.7048 -4.4595,-4.7121 -5.0301,-7.8426 -0.6602,-3.6987 -0.2642,-7.4809 -0.3733,-11.217 -0.112,-4.066 0.5051,-8.5167 3.3862,-11.6158 z m 9.745,3.8165 c -1.2027,0.33 -2.3706,0.9298 -3.1771,1.9024 -1.1704,1.3833 -1.5032,3.257 -1.5032,5.0216 -0.003,2.6861 -0.0144,5.375 0.005,8.0605 -0.003,1.914 0.6919,3.9569 2.3272,5.0795 1.8769,1.3254 4.2874,1.3515 6.4939,1.2855 1.5526,-0.0777 3.2139,0.1318 4.6457,-0.603 1.7246,-0.8294 2.8667,-2.6974 2.8409,-4.6083 0.006,-3.6445 0.009,-7.2915 -0.0315,-10.9354 -0.0946,-2.8783 -2.5798,-5.421 -5.4609,-5.5585 -2.0486,-0.0113 -4.1377,-0.1692 -6.1404,0.3557 z m 127.008,-6.8694 c 5.0559,-1.9489 10.9241,-1.6016 15.7561,0.8345 4.5224,2.2473 8.0461,6.4394 9.4034,11.3148 0.3103,0.8954 -0.4734,1.9029 -1.4117,1.8481 -2.2895,0.0287 -4.5768,0.003 -6.8638,0.0114 -1.6013,-4.4765 -6.5052,-7.4809 -11.2227,-6.7116 -4.5566,0.5737 -8.3877,4.5136 -8.8353,9.0847 -0.3988,3.2338 0.8694,6.6113 3.28,8.8011 2.5163,2.3584 6.2555,3.3023 9.5924,2.4244 3.191,-0.7803 5.8771,-3.1992 7.085,-6.2438 2.3272,0 4.6576,-0.0173 6.9845,0.006 0.9267,-0.0487 1.7158,0.9496 1.4063,1.8394 -1.4349,4.574 -4.6687,8.5796 -8.8985,10.8581 -7.1422,3.9569 -16.8069,2.7406 -22.5632,-3.1161 -5.8712,-5.6934 -7.1796,-15.3031 -3.2998,-22.4569 2.0372,-3.8625 5.5065,-6.9386 9.5873,-8.4937 z m 38.7612,1.2308 c 4.2069,-2.393 9.3175,-3.0614 14.0236,-1.9857 4.1921,0.9385 8.0402,3.3627 10.6687,6.7694 4.7002,5.9369 5.1563,14.6543 1.5466,21.2372 -2.3618,4.3962 -6.5568,7.8021 -11.3921,9.0762 -0.9122,0.2067 -1.7964,-0.6457 -1.7156,-1.5553 -0.0204,-2.2927 0,-4.5882 -0.006,-6.884 2.1407,-0.8121 4.0235,-2.3011 5.2543,-4.2412 1.5494,-2.3845 2.069,-5.4147 1.3802,-8.1751 -0.7058,-2.9443 -2.7604,-5.5207 -5.4578,-6.8896 -3.0702,-1.6013 -6.9356,-1.5239 -9.9372,0.1979 -3.5668,1.9598 -5.7821,6.1149 -5.3402,10.1724 0.3067,3.888 2.9929,7.4148 6.6169,8.8296 0.009,2.3273 0.009,4.657 0.003,6.9843 0.0915,0.904 -0.7662,1.7677 -1.6787,1.5897 -5.349,-1.5872 -9.9145,-5.6472 -12.0461,-10.8125 -2.0948,-5.0043 -2.0206,-10.887 0.2582,-15.8165 1.6297,-3.5586 4.4073,-6.58 7.8222,-8.4968 z"
     style="fill:url(#grad1)"
     id="path13" />
</svg>
